<?xml version="1.0" encoding="UTF-8"?>
<svg version="1.1" viewBox="0 0 1600 872" width="1280" height="1280" xmlns="http://www.w3.org/2000/svg">
<path transform="translate(0)" d="m0 0h1600v872h-1600v-872z" fill="#FDFDFD"/>
<path transform="translate(496 328)" d="m0 0c1.71 3.4e-4 1.71 3.4e-4 3.46 6.87e-4 1.23 0.0155 2.45 0.031 3.72 0.0469 1.89 0.00637 1.89 0.00637 3.82 0.0129 3.34 0.0139 6.68 0.0409 10 0.0741 3.41 0.0307 6.82 0.0444 10.2 0.0595 6.69 0.0331 13.4 0.0833 20.1 0.146 0.645 1.91 1.29 3.82 1.93 5.73 0.358 1.06 0.716 2.13 1.09 3.22 1.22 3.77 2.15 7.56 2.98 11.4 1.44 6.4 3.1 12.7 4.97 19 1.16 4.1 2.19 8.23 3.21 12.4 1.4 5.64 2.86 11.3 4.31 16.9 0.166 0.643 0.332 1.29 0.503 1.95 2.24 8.7 4.51 17.4 6.79 26.1 0.239 0.913 0.479 1.83 0.726 2.77 1.18 4.48 2.36 8.97 3.54 13.5 2.29 8.73 4.56 17.5 6.78 26.2 0.218 0.85 0.436 1.7 0.661 2.58 0.297 1.18 0.297 1.18 0.6 2.39 0.176 0.693 0.351 1.39 0.532 2.1 0.375 1.85 0.375 1.85 0.375 4.85h2c0.33 0.66 0.66 1.32 1 2 1.87-6.38 3.73-12.8 5.6-19.1 0.631-2.16 1.26-4.31 1.89-6.47 3.66-12.5 7.26-25 10.8-37.6 3.51-12.6 7.1-25.2 10.7-37.8 0.792-2.78 1.58-5.55 2.37-8.33 7.55-26.5 7.55-26.5 10.6-36.6 0.361-1.19 0.722-2.39 1.09-3.62 0.977-2.51 0.977-2.51 2.98-3.51 1.44-0.0951 2.88-0.131 4.32-0.133 1.27-0.00193 1.27-0.00193 2.56-0.00391 0.885 0.00387 1.77 0.00773 2.68 0.0117 0.889-0.00387 1.78-0.00773 2.69-0.0117 0.845 0.00129 1.69 0.00258 2.56 0.00391 0.778 0.00113 1.56 0.00226 2.36 0.00342 1.83 0.129 1.83 0.129 2.83 1.13-0.46 7.65-2.79 14.8-4.94 22.1-0.54 1.87-0.54 1.87-1.09 3.79-1.56 5.4-3.19 10.8-4.97 16.1-0.515 1.7-1.02 3.4-1.52 5.1-0.278 0.955-0.557 1.91-0.844 2.89-0.294 1.01-0.588 2.03-0.891 3.07-0.309 1.06-0.619 2.13-0.938 3.22-2.2 7.59-4.38 15.2-6.54 22.8-1.9 6.65-3.83 13.3-5.77 19.9-3.21 11-6.37 22-9.5 33-5.95 20.9-12 41.8-18.3 62.6-0.776 2.57-1.55 5.15-2.32 7.72-0.266 0.887-0.532 1.77-0.807 2.69-0.301 1-0.301 1-0.608 2.03-7.65 0.0506-15.3 0.0857-23 0.11-2.61 0.0101-5.21 0.0237-7.82 0.041-3.74 0.0242-7.48 0.0356-11.2 0.0444-1.76 0.0155-1.76 0.0155-3.55 0.0313-1.62 2.27e-4 -1.62 2.27e-4 -3.28 4.58e-4 -0.955 0.00444-1.91 0.00888-2.89 0.0135-2.29-0.241-2.29-0.241-4.29-2.24-0.664-1.96-1.24-3.94-1.78-5.94-0.343-1.27-0.687-2.53-1.04-3.84-0.374-1.41-0.747-2.81-1.12-4.22-0.392-1.46-0.784-2.92-1.18-4.38-1.31-4.87-2.6-9.75-3.89-14.6-0.234-0.885-0.468-1.77-0.709-2.68-9-34-9-34-12.4-47.8-1.6-6.45-3.41-12.8-5.33-19.2-2.55-8.57-4.79-17.2-6.79-25.9-1.41-6.09-3.08-12.1-4.89-18.1-2.99-9.94-5.35-20.1-7.79-30.1-0.385-1.57-0.385-1.57-0.777-3.18-0.21-0.875-0.42-1.75-0.637-2.65-0.718-2.56-1.67-4.95-2.68-7.41 0.00524 0.578 0.0105 1.16 0.0159 1.75 0.0467 6.02 0.0377 12-0.00366 18.1-0.00811 2.25-0.00203 4.49 0.0186 6.74 0.0272 3.23 0.00315 6.46-0.0308 9.69 0.0194 1 0.0388 2 0.0588 3.04-0.141 6.82-0.141 6.82-2.77 9.43-2.05 1.3-4.08 2.32-6.29 3.3-1.33 0.74-2.66 1.49-3.98 2.25-1.4 0.771-2.8 1.54-4.21 2.31-14.3 7.88-28.5 16-42.5 24.3-3.06 1.82-6.11 3.6-9.33 5.12 3.92 3.35 8 5.8 12.5 8.25 5.01 2.77 9.95 5.59 14.8 8.62 5.38 3.35 10.8 6.57 16.3 9.75 0.816 0.473 1.63 0.946 2.47 1.43 5.2 3 10.4 5.89 15.8 8.63 2.52 1.56 4.23 3.03 6.13 5.32 0.481 2.68 0.481 2.68 0.454 5.78-3.02e-4 1.16-6.04e-4 2.32-9.16e-4 3.52-0.0206 1.25-0.0413 2.5-0.0626 3.78-0.00566 1.28-0.0113 2.56-0.0172 3.88-0.0152 3.4-0.0545 6.8-0.0988 10.2-0.041 3.47-0.0592 6.94-0.0793 10.4-0.0428 6.81-0.111 13.6-0.195 20.4-3.75-0.683-6.47-1.62-9.77-3.55-0.891-0.516-1.78-1.03-2.7-1.56-0.919-0.541-1.84-1.08-2.79-1.64-1.82-1.06-3.64-2.12-5.45-3.17-0.885-0.517-1.77-1.03-2.68-1.57-3.84-2.22-7.72-4.37-11.6-6.51-6.08-3.35-12.1-6.8-18.1-10.3-3.16-1.83-6.35-3.61-9.55-5.37-3.86-2.16-7.66-4.42-11.5-6.67-2.92-1.66-5.89-3.15-8.89-4.65-2.43-1.34-4.84-2.69-7.25-4.06-1.41-0.799-2.83-1.6-4.24-2.39-0.734-0.415-1.47-0.829-2.23-1.26-3.9-2.19-7.81-4.37-11.7-6.54-1.08-0.6-1.08-0.6-2.18-1.21-1.41-0.785-2.83-1.57-4.24-2.35-3.71-2.06-7.43-4.12-11.1-6.19-3-1.67-6-3.33-9-5-0.203-7.01-0.343-14-0.439-21-0.0402-2.38-0.0948-4.77-0.164-7.15-0.0973-3.43-0.142-6.86-0.178-10.3-0.0413-1.06-0.0826-2.13-0.125-3.22-0.00437-7.24-0.00437-7.24 2.61-10.3 2.04-1.56 4.03-2.83 6.3-4.02 0.674-0.36 1.35-0.72 2.04-1.09 1.24-0.639 2.5-1.26 3.77-1.85 7.1-3.42 13.9-7.41 20.6-11.6 2.75-1.59 5.56-2.99 8.41-4.4 3.8-1.91 7.51-3.97 11.2-6.03 0.851-0.469 1.7-0.939 2.58-1.42 6.85-3.78 13.7-7.61 20.5-11.5 0.935-0.527 1.87-1.05 2.83-1.6 5.33-3.02 10.6-6.11 15.8-9.3 2.68-1.58 5.43-2.95 8.23-4.31 2.08-1.04 4.11-2.15 6.14-3.28 3.16-1.77 6.33-3.53 9.51-5.27 1.15-0.632 1.15-0.632 2.32-1.28 1.56-0.862 3.13-1.72 4.7-2.58 1.14-0.628 1.14-0.628 2.3-1.27 0.676-0.371 1.35-0.743 2.05-1.13 2.01-1.13 2.01-1.13 3.73-2.73 2.83-1.84 4.56-1.81 7.92-1.79z" fill="#1C1D1E"/>
<path transform="translate(681 328)" d="m0 0c1.08-0.00315 2.16-0.0063 3.27-0.00955 1.16 0.00202 2.31 0.00405 3.51 0.00613 1.79-0.00144 1.79-0.00144 3.61-0.0029 2.51-6.8e-4 5.03 0.00116 7.54 0.00534 3.86 0.00536 7.73 4.23e-5 11.6-0.00635 2.44 6.61e-4 4.88 0.00194 7.32 0.00391 1.16-0.00202 2.33-0.00405 3.53-0.00613 1.07 0.00315 2.14 0.0063 3.24 0.00955 1.42 0.00119 1.42 0.00119 2.86 0.00241 2.14 0.127 2.14 0.127 3.14 1.13 0.0951 2.68 0.126 5.33 0.114 8.01 1.46e-4 0.839 2.92e-4 1.68 4.43e-4 2.54-6.99e-4 2.79-0.00849 5.57-0.0163 8.36-0.00186 1.93-0.00329 3.85-0.00429 5.78-0.00383 5.08-0.0137 10.2-0.0247 15.2-0.0102 5.18-0.0148 10.4-0.0198 15.5-0.0107 10.2-0.0278 20.3-0.0488 30.5h2c0.33 0.66 0.66 1.32 1 2 0.58-0.797 0.58-0.797 1.17-1.61 4.42-5.99 4.42-5.99 6.83-8.33 2.6-2.68 4.45-5.69 6.44-8.84 1.56-2.22 1.56-2.22 3.39-4.02 2.99-3.02 5.41-6.4 7.92-9.82 4.01-5.41 8.1-10.7 12.3-16 2.13-2.68 4.18-5.41 6.23-8.16 19.3-25.8 19.3-25.8 25.7-32.2 1.68-0.0993 3.37-0.131 5.06-0.133 1.03-0.00129 2.05-0.00258 3.11-0.00391 1.62 0.0058 1.62 0.0058 3.27 0.0117 1.61-0.0058 1.61-0.0058 3.26-0.0117 1.54 0.00193 1.54 0.00193 3.11 0.00391 0.947 0.00113 1.89 0.00226 2.87 0.00342 2.32 0.129 2.32 0.129 4.32 1.13-0.344 5.43-3.56 8.55-6.94 12.5-1.19 1.42-2.37 2.85-3.55 4.27-0.591 0.709-1.18 1.42-1.79 2.15-2.49 3.02-4.9 6.1-7.28 9.2-0.764 0.993-1.53 1.99-2.32 3.01-1.46 1.97-2.86 3.99-4.21 6.05-1.56 2.3-2.97 3.9-4.91 5.82-1.79 2.24-3.56 4.48-5.31 6.75-3.02 3.91-6.04 7.71-9.44 11.3-2.54 2.64-2.54 2.64-2.06 5.3 0.874 2.85 2.03 5.18 3.5 7.77 0.542 0.964 1.08 1.93 1.64 2.92 0.55 0.973 1.1 1.95 1.67 2.95 0.971 1.78 1.94 3.56 2.9 5.34 0.49 0.903 0.98 1.81 1.48 2.74 5.7 10.5 11.4 21 17 31.6 4.59 8.58 9.19 17.2 13.8 25.7 0.578 1.07 1.16 2.15 1.75 3.26 3.19 5.93 6.41 11.8 9.65 17.7 4.98 9.08 9.86 18.2 14.7 27.4 0.574 1.09 1.15 2.18 1.74 3.3 0.525 1.01 1.05 2.02 1.59 3.05 0.468 0.897 0.937 1.79 1.42 2.72 1 2.17 1 2.17 1 4.17-8.41 0.0927-16.8 0.164-25.2 0.207-3.9 0.0209-7.81 0.0492-11.7 0.0945-3.77 0.0435-7.53 0.0674-11.3 0.0778-1.44 0.00739-2.87 0.0218-4.31 0.0434-2.01 0.0291-4.03 0.0307-6.04 0.0312-1.15 0.00888-2.29 0.0178-3.47 0.0269-3.59-0.586-4.7-1.68-6.95-4.48-1.26-1.88-1.26-1.88-2.33-3.84-0.402-0.727-0.804-1.45-1.22-2.2-0.416-0.771-0.833-1.54-1.26-2.34-0.441-0.804-0.882-1.61-1.34-2.44-3.16-5.81-6.13-11.7-9.05-17.6-2.34-4.6-4.86-9.09-7.39-13.6-3-5.35-5.9-10.7-8.76-16.2-0.381-0.721-0.763-1.44-1.16-2.19-1.93-3.66-3.86-7.32-5.78-11-0.717-1.36-1.43-2.72-2.15-4.08-0.33-0.633-0.66-1.27-0.999-1.92-1.35-2.54-2.51-4.6-4.56-6.65-1.45 1.18-1.45 1.18-2.94 2.38-0.545 0.441-1.09 0.882-1.65 1.34-1.86 1.7-2.37 2.84-2.6 5.35-0.0303 0.874-0.0606 1.75-0.0918 2.65-0.0368 1.04-0.0736 2.07-0.112 3.14-0.0354 1.16-0.0707 2.33-0.107 3.52-0.0598 1.83-0.0598 1.83-0.121 3.69-0.688 22-0.993 44-1.38 65.9-7.68 0.0231-15.4 0.0409-23 0.0518-3.56 0.00523-7.13 0.0123-10.7 0.0236-4.09 0.0129-8.19 0.0178-12.3 0.0222-1.93 0.00774-1.93 0.00774-3.9 0.0156-1.77 1.13e-4 -1.77 1.13e-4 -3.58 2.29e-4 -1.05 0.00222-2.09 0.00444-3.17 0.00673-2.36-0.12-2.36-0.12-3.36-1.12-0.1-2.63-0.134-5.23-0.127-7.85-0.00156-0.832-0.00312-1.66-0.00473-2.52-0.00401-2.81-8.19e-4 -5.62 0.00232-8.43-0.00135-2.01-0.00313-4.01-0.00531-6.02-0.00458-5.47-0.00278-10.9 3.79e-4 -16.4 0.00252-5.71 1.86e-4 -11.4-0.00139-17.1-0.00182-9.59 5.85e-4 -19.2 0.00534-28.8 0.00544-11.1 0.00368-22.2-0.00183-33.3-0.00453-9.51-0.00518-19-0.00256-28.5 0.00156-5.69 0.00176-11.4-0.00154-17.1-0.00288-5.35-9e-4 -10.7 0.00489-16 0.00133-1.97 9.35e-4 -3.94-0.00126-5.9-0.00271-2.68 6.73e-4 -5.35 0.00568-8.03-0.00223-0.787-0.00446-1.57-0.00676-2.39 0.0196-5.36 0.0196-5.36 1.13-7.59 3.12-1.11 6.11-1.13 9.4-1.13z" fill="#1C1D1E"/>
<path transform="translate(988,331)" d="m0 0c4.48 1.36 8.35 3.14 12.4 5.41 0.903 0.5 0.903 0.5 1.82 1.01 1.92 1.06 3.83 2.13 5.74 3.2 1.25 0.694 2.5 1.39 3.75 2.08 7.34 4.07 14.6 8.22 21.9 12.4 4.99 2.86 10 5.69 15 8.53 0.942 0.534 1.88 1.07 2.85 1.62 7.51 4.25 15.1 8.39 22.7 12.5 4.01 2.16 7.96 4.33 11.8 6.78 5.56 3.54 11.4 6.57 17.2 9.68 2.44 1.31 4.87 2.63 7.3 3.95 0.79 0.42 1.58 0.84 2.39 1.27 0.747 0.408 1.49 0.815 2.26 1.24 0.668 0.36 1.34 0.72 2.03 1.09 2.87 2.02 4.59 4.08 5.25 7.57 0.0235 0.84 0.047 1.68 0.0712 2.55 0.0321 0.958 0.0641 1.92 0.0971 2.9 0.0159 1.03 0.0318 2.06 0.0481 3.12 0.0195 1.07 0.0389 2.13 0.059 3.23 0.0327 2.25 0.0565 4.51 0.0721 6.76 0.0366 3.44 0.143 6.87 0.25 10.3 0.0232 2.19 0.0422 4.38 0.0566 6.58 0.0422 1.02 0.0844 2.05 0.128 3.1-0.0411 4.46-0.146 7.09-3.37 10.3-2.55 1.81-5.08 3.36-7.84 4.82-1.08 0.587-1.08 0.587-2.18 1.19-1.81 0.955-3.65 1.83-5.51 2.69-6.92 3.33-13.5 7.1-20 11.1-3.28 2-6.6 3.89-9.97 5.72-2.44 1.35-4.84 2.74-7.25 4.14-6.47 3.75-13 7.18-19.8 10.4-3.2 1.66-6.19 3.47-9.23 5.4-9.82 6.18-20 11.9-30.4 17-3.85 1.9-7.59 3.97-11.3 6.04-0.784 0.428-1.57 0.856-2.38 1.3-0.701 0.387-1.4 0.773-2.12 1.17-1.88 0.828-1.88 0.828-4.88 0.828-1.29-2.57-1.14-4.44-1.16-7.32-0.00961-1.11-0.0192-2.22-0.0291-3.37-0.00425-1.21-0.0085-2.41-0.0129-3.65-0.0057-1.23-0.0114-2.47-0.0173-3.74-0.00946-2.61-0.016-5.22-0.0198-7.84-0.0044-2.68-0.0183-5.36-0.041-8.05-0.0304-3.86-0.041-7.71-0.0469-11.6-0.0123-1.2-0.0247-2.41-0.0374-3.65 3e-3 -1.11 6e-3 -2.23 0.00909-3.38-0.00365-0.982-0.00729-1.96-0.011-2.98 0.432-2.91 1.07-3.71 3.37-5.47 1.8-1.1 3.64-2.14 5.5-3.15 1.11-0.606 2.21-1.21 3.35-1.84 0.585-0.318 1.17-0.636 1.77-0.963 3.07-1.67 6.14-3.36 9.2-5.05 0.614-0.339 1.23-0.678 1.86-1.03 8.58-4.76 16.9-9.86 25.3-15 2.2-1.35 4.41-2.69 6.61-4.03 1.3-0.79 2.6-1.58 3.9-2.38 4.26-2.59 4.26-2.59 6.49-2.59-3.2-9.74-15.2-13.8-23.7-18.4-7.06-3.83-14-7.81-20.9-11.9-1.47-0.862-1.47-0.862-2.98-1.74-1.88-1.11-3.77-2.21-5.65-3.32-1.88-1.11-3.76-2.21-5.65-3.3-0.908-0.532-1.82-1.06-2.75-1.61-0.814-0.473-1.63-0.947-2.47-1.43-1.89-1.27-1.89-1.27-2.89-3.27-0.101-1.75-0.138-3.5-0.145-5.24-0.00638-1.09-0.0128-2.19-0.0193-3.32-0.00111-1.19-0.00223-2.37-0.00337-3.6-0.00333-1.21-0.00666-2.43-0.0101-3.68-0.00507-2.57-0.00741-5.14-0.00725-7.71-0.00219-3.94-0.0203-7.89-0.0393-11.8-0.00293-2.49-0.00492-4.98-0.00586-7.47-0.0108-1.78-0.0108-1.78-0.0218-3.6 0.00308-1.09 0.00615-2.19 0.00932-3.32-0.00143-0.967-0.00285-1.93-0.00432-2.93 0.247-2.32 0.247-2.32 2.25-4.32z" fill="#1C1D1E"/>
<path transform="translate(958 328)" d="m0 0c0.801-0.00129 1.6-0.00258 2.43-0.00391 0.837 0.00387 1.67 0.00773 2.54 0.0117 0.841-0.00387 1.68-0.00773 2.55-0.0117 6.26 0.0101 6.26 0.0101 7.39 1.14-0.376 4.61-1.4 8.45-3.12 12.8-1.33 3.34-2.51 6.74-3.72 10.1-1.64 4.4-3.41 8.75-5.16 13.1-0.655 1.63-1.31 3.26-1.96 4.89-0.322 0.803-0.645 1.61-0.977 2.43-3 7.49-5.97 15-8.84 22.5-1.39 3.6-2.83 7.19-4.28 10.8-1.72 4.27-3.39 8.54-4.94 12.9-2.24 6.26-4.73 12.4-7.22 18.6-4.02 9.96-7.96 19.9-11.8 30-2.2 5.66-4.41 11.3-6.62 17-0.368 0.943-0.737 1.89-1.12 2.86-1.71 4.38-3.44 8.76-5.19 13.1-2.16 5.39-4.27 10.8-6.38 16.2-2.56 6.55-5.13 13.1-7.75 19.6-2.22 5.53-4.4 11.1-6.56 16.6-0.429 1.1-0.429 1.1-0.866 2.22-1.85 4.77-3.66 9.55-5.45 14.3-0.871 2.31-1.75 4.63-2.62 6.94-0.425 1.12-0.851 2.25-1.29 3.4-1.09 2.66-1.09 2.66-2.09 3.66-1.56 0.0869-3.13 0.107-4.69 0.0977-0.944-0.00322-1.89-0.00645-2.86-0.00977-0.993-0.00838-1.99-0.0168-3.01-0.0254-0.997-0.00451-1.99-0.00902-3.02-0.0137-2.47-0.0118-4.94-0.0283-7.42-0.0488-1-2-1-2-0.345-4.23 0.561-1.43 0.561-1.43 1.13-2.88 0.436-1.12 0.873-2.24 1.32-3.39 0.504-1.27 1.01-2.54 1.51-3.81 0.528-1.34 1.06-2.69 1.58-4.03 1.92-4.89 3.86-9.77 5.79-14.7 0.819-2.06 1.64-4.13 2.46-6.19 7.19-18.1 7.19-18.1 9.5-23.9 5.59-14.1 11.1-28.2 16.4-42.4 3.31-8.81 6.85-17.5 10.4-26.2 3.46-8.43 6.79-16.9 10.1-25.4 4.08-10.6 8.2-21.2 12.4-31.8 3.69-9.35 7.37-18.7 11-28.1 0.543-1.39 0.543-1.39 1.1-2.81 1.78-4.57 3.56-9.14 5.34-13.7 0.652-1.67 1.3-3.35 1.96-5.02 0.293-0.756 0.586-1.51 0.889-2.29 0.807-2.07 1.62-4.14 2.45-6.2 0.398-1.01 0.398-1.01 0.803-2.05 2.02-4.97 3-6.08 8.29-6.09z" fill="#1C1D1E"/>
</svg>
